HIERARCHY
ROOT Hips
{
	OFFSET 0.00000 0.00000 0.00000
	CHANNELS 6 Xposition Yposition Zposition Zrotation Yrotation Xrotation 
	JOINT LHipJoint
	{
		OFFSET 0 0 0
		CHANNELS 3 Zrotation Yrotation Xrotation
		JOINT LeftUpLeg
		{
			OFFSET 1.57358 -1.76629 0.73362
			CHANNELS 3 Zrotation Yrotation Xrotation
			JOINT LeftLeg
			{
				OFFSET 2.40600 -6.61045 0.00000
				CHANNELS 3 Zrotation Yrotation Xrotation
				JOINT LeftFoot
				{
					OFFSET 2.66168 -7.31291 0.00000
					CHANNELS 3 Zrotation Yrotation Xrotation
					JOINT LeftToeBase
					{
						OFFSET 0.20870 -0.57341 2.12506
						CHANNELS 3 Zrotation Yrotation Xrotation
						End Site
						{
							OFFSET 0.00000 -0.00000 1.10557
						}
					}
				}
			}
		}
	}
	JOINT RHipJoint
	{
		OFFSET 0 0 0
		CHANNELS 3 Zrotation Yrotation Xrotation
		JOINT RightUpLeg
		{
			OFFSET -1.49299 -1.76629 0.73362
			CHANNELS 3 Zrotation Yrotation Xrotation
			JOINT RightLeg
			{
				OFFSET -2.43663 -6.69460 0.00000
				CHANNELS 3 Zrotation Yrotation Xrotation
				JOINT RightFoot
				{
					OFFSET -2.62959 -7.22474 0.00000
					CHANNELS 3 Zrotation Yrotation Xrotation
					JOINT RightToeBase
					{
						OFFSET -0.25784 -0.70841 2.21862
						CHANNELS 3 Zrotation Yrotation Xrotation
						End Site
						{
							OFFSET -0.00000 -0.00000 1.16452
						}
					}
				}
			}
		}
	}
	JOINT LowerBack
	{
		OFFSET 0 0 0
		CHANNELS 3 Zrotation Yrotation Xrotation
		JOINT Spine
		{
			OFFSET -0.00034 2.12399 -0.25450
			CHANNELS 3 Zrotation Yrotation Xrotation
			JOINT Spine1
			{
				OFFSET 0.05594 2.14379 -0.03318
				CHANNELS 3 Zrotation Yrotation Xrotation
				JOINT Neck
				{
					OFFSET 0 0 0
					CHANNELS 3 Zrotation Yrotation Xrotation
					JOINT Neck1
					{
						OFFSET -0.09835 1.62725 0.24211
						CHANNELS 3 Zrotation Yrotation Xrotation
						JOINT Head
						{
							OFFSET 0.10849 1.66041 -0.22648
							CHANNELS 3 Zrotation Yrotation Xrotation
							End Site
							{
								OFFSET 0.04385 1.68267 -0.10541
							}
						}
					}
				}
				JOINT LeftShoulder
				{
					OFFSET 0 0 0
					CHANNELS 3 Zrotation Yrotation Xrotation
					JOINT LeftArm
					{
						OFFSET 3.29108 0.79398 -0.68179
						CHANNELS 3 Zrotation Yrotation Xrotation
						JOINT LeftForeArm
						{
							OFFSET 5.15310 -0.00000 -0.00000
							CHANNELS 3 Zrotation Yrotation Xrotation
							JOINT LeftHand
							{
								OFFSET 3.75138 -0.00000 -0.00000
								CHANNELS 3 Zrotation Yrotation Xrotation
								JOINT LeftFingerBase
								{
									OFFSET 0 0 0
									CHANNELS 3 Zrotation Yrotation Xrotation
									JOINT LeftHandIndex1
									{
										OFFSET 0.52917 -0.00000 0.00000
										CHANNELS 3 Zrotation Yrotation Xrotation
										End Site
										{
											OFFSET 0.42663 -0.00000 0.00000
										}
									}
								}
								JOINT LThumb
								{
									OFFSET 0 0 0
									CHANNELS 3 Zrotation Yrotation Xrotation
									End Site
									{
										OFFSET 0.43315 -0.00000 0.43315
									}
								}
							}
						}
					}
				}
				JOINT RightShoulder
				{
					OFFSET 0 0 0
					CHANNELS 3 Zrotation Yrotation Xrotation
					JOINT RightArm
					{
						OFFSET -3.07414 1.06285 -0.44338
						CHANNELS 3 Zrotation Yrotation Xrotation
						JOINT RightForeArm
						{
							OFFSET -5.29613 -0.00000 0.00000
							CHANNELS 3 Zrotation Yrotation Xrotation
							JOINT RightHand
							{
								OFFSET -3.76144 -0.00000 -0.00000
								CHANNELS 3 Zrotation Yrotation Xrotation
								JOINT RightFingerBase
								{
									OFFSET 0 0 0
									CHANNELS 3 Zrotation Yrotation Xrotation
									JOINT RightHandIndex1
									{
										OFFSET -0.74732 -0.00000 0.00000
										CHANNELS 3 Zrotation Yrotation Xrotation
										End Site
										{
											OFFSET -0.60251 -0.00000 0.00000
										}
									}
								}
								JOINT RThumb
								{
									OFFSET 0 0 0
									CHANNELS 3 Zrotation Yrotation Xrotation
									End Site
									{
										OFFSET -0.61171 -0.00000 0.61171
									}
								}
							}
						}
					}
				}
			}
		}
	}
}
MOTION
Frames: 10
Frame Time: .0083333
2.0463 17.0835 -0.1582 1.4057 -48.4874 8.1159 0.0000 0.0000 0.0000 -8.0813 -5.4390 -33.6856 13.9992 19.1138 72.2022 0.0530 -4.1975 -4.7067 0.8048 -5.7253 -15.9894 0.0000 0.0000 0.0000 29.7822 9.2892 -5.7146 -3.8701 -11.9854 35.6805 -0.9747 -5.4667 -21.3936 -0.2009 2.8862 -7.9620 3.9009 1.0901 11.1159 2.5338 2.1177 -0.6071 0.1200 0.9305 -6.8474 -10.6723 -5.2579 -19.2252 6.8070 -5.5150 14.7845 3.3171 -2.5501 8.2357 0.0000 0.0000 0.0000 -87.0807 22.1194 45.9596 116.2922 -57.2196 -82.5572 -0.0000 0.0000 -23.3745 16.9192 5.8917 1.7884 -7.1250 0.0000 -0.0000 -8.2123 36.0326 1.8256 0.0000 0.0000 0.0000 83.8501 -8.6219 43.4093 -117.5329 56.9323 -83.5986 0.0000 -0.0000 -15.1173 -12.9594 20.4122 -4.5887 7.1250 -0.0000 -0.0000 9.9330 -9.3289 8.3208
1.8224 17.1705 0.1300 1.0091 -48.4275 8.5689 0.0000 0.0000 0.0000 -8.2072 -5.4989 -34.7375 13.3190 18.8943 70.1134 0.1096 -3.7419 -6.0542 0.9752 -6.2867 -17.6184 0.0000 0.0000 0.0000 29.7994 8.6036 -4.5880 -3.7018 -11.7526 34.8624 -0.6931 -5.7664 -18.8673 -0.6276 5.0693 -14.1063 4.3660 1.1452 10.8853 2.6707 2.2566 -0.8203 -0.0151 0.9801 -6.9299 -11.0449 -5.2093 -18.6553 6.8650 -5.4192 14.7041 3.4163 -2.5312 8.1149 -0.0000 0.0000 0.0000 -87.6574 23.5409 45.4551 117.2637 -56.9961 -83.3729 -0.0000 0.0000 -23.7923 17.1935 7.1378 2.2019 -7.1250 0.0000 -0.0000 -8.1577 37.3362 1.5510 -0.0000 0.0000 0.0000 83.2755 -8.5334 44.3007 -119.2566 56.5048 -85.0397 0.0000 -0.0000 -14.7938 -13.1126 20.6782 -4.7023 7.1250 -0.0000 -0.0000 9.8423 -9.0458 8.2992
1.5924 17.2753 0.4096 0.9577 -48.2624 8.7236 0.0000 0.0000 0.0000 -8.5214 -5.8942 -35.4563 12.4582 18.5777 67.4338 0.1456 -3.3626 -6.8276 1.0560 -6.5340 -18.3420 0.0000 0.0000 0.0000 29.5142 8.2954 -2.9128 -3.4985 -11.4613 33.8521 -0.6750 -3.7282 -17.3165 -0.1616 2.5897 -7.1385 4.3864 0.9596 10.7620 2.8906 2.0299 -1.0358 0.2446 0.8677 -7.1049 -11.6552 -4.9266 -18.0563 7.0976 -4.9775 14.5332 3.6586 -2.3444 7.9359 -0.0000 -0.0000 0.0000 -88.8445 24.8356 43.8361 117.5597 -56.9259 -83.6211 -0.0000 0.0000 -23.7627 16.4347 7.4317 2.1850 -7.1250 0.0000 -0.0000 -8.8412 37.5906 1.6277 -0.0000 -0.0000 0.0000 82.4293 -8.2834 45.7501 -120.4744 56.1822 -86.0533 0.0000 -0.0000 -14.3529 -13.3078 21.2308 -4.8957 7.1250 -0.0000 -0.0000 9.7351 -8.4704 8.3191
1.3461 17.3910 0.6934 1.9090 -48.1006 8.1499 0.0000 0.0000 0.0000 -9.6491 -6.3042 -35.8289 11.4724 18.1586 64.3063 0.1782 -2.8547 -7.4978 0.9957 -6.3504 -17.8046 0.0000 0.0000 0.0000 28.5781 7.6813 -1.9079 -3.3613 -11.2582 33.1556 -0.4800 -3.3212 -14.7258 -0.1488 2.4859 -6.8504 3.7370 0.9537 10.4889 2.8265 1.9262 -1.1580 0.5620 0.8424 -7.0994 -12.1705 -4.8803 -17.8972 7.4106 -4.8596 14.5753 3.8667 -2.2915 7.9329 0.0000 -0.0000 0.0000 -89.4855 25.8706 42.7034 117.5446 -56.9295 -83.6085 -0.0000 0.0000 -23.4970 16.3596 7.9803 2.3337 -7.1250 0.0000 -0.0000 -8.9920 38.1491 1.5317 0.0000 -0.0000 0.0000 81.9362 -7.9842 46.5673 -121.5015 55.8964 -86.9052 0.0000 -0.0000 -13.8135 -13.5207 21.7101 -5.0830 7.1250 -0.0000 -0.0000 9.6168 -7.9654 8.3124
1.1095 17.4959 0.9811 2.4034 -47.5880 7.8997 0.0000 0.0000 0.0000 -10.3807 -6.8311 -36.1880 10.4447 17.6524 60.9646 0.1824 -2.6095 -7.5869 0.8948 -6.0291 -16.8690 0.0000 0.0000 0.0000 27.9109 6.7660 -1.1003 -3.2683 -11.1173 32.6764 -0.2816 -3.4081 -11.8722 -0.1540 2.5284 -6.9685 3.4786 1.0977 10.3496 2.7949 2.0801 -1.2339 0.6508 0.9275 -7.1058 -12.2863 -5.1710 -18.2046 7.3362 -5.1862 14.8773 3.8163 -2.4579 8.1226 -0.0000 -0.0000 0.0000 -89.6811 26.6803 42.5961 117.2435 -57.0008 -83.3560 -0.0000 0.0000 -22.9032 17.4661 8.6021 2.6945 -7.1250 0.0000 -0.0000 -8.1508 38.8690 1.2408 -0.0000 -0.0000 0.0000 81.5040 -7.9473 46.5046 -122.7760 55.5237 -87.9582 0.0000 -0.0000 -12.9535 -13.7667 21.7864 -5.1958 7.1250 -0.0000 -0.0000 9.4646 -7.8602 8.1969
0.8817 17.5798 1.2667 2.3441 -47.0662 8.0147 0.0000 0.0000 0.0000 -10.7173 -7.3814 -36.4502 9.4977 17.1175 57.7958 0.1881 -2.5240 -7.7084 1.1286 -6.7477 -18.9699 0.0000 0.0000 0.0000 27.6442 5.8228 -0.1822 -3.1053 -10.8635 31.8210 -0.1000 -3.6363 -8.4268 -0.1791 2.7259 -7.5165 3.4113 1.2938 10.5315 2.9208 2.3611 -1.4227 0.7713 1.0645 -7.4173 -11.9685 -5.4567 -18.4393 6.8494 -5.5475 15.0832 3.5473 -2.6559 8.2461 -0.0000 0.0000 0.0000 -89.7971 27.5135 42.7295 116.7480 -57.1160 -82.9402 -0.0000 0.0000 -22.4216 17.2745 7.6171 2.3604 -7.1250 0.0000 -0.0000 -8.1606 37.8370 1.4506 -0.0000 0.0000 0.0000 80.8591 -8.3034 46.2165 -124.3741 55.0270 -89.2718 0.0000 -0.0000 -12.4489 -13.5458 21.6710 -5.0841 7.1250 -0.0000 -0.0000 9.5997 -8.0018 8.2902
0.6414 17.6531 1.5729 2.7298 -46.8582 7.7649 0.0000 0.0000 0.0000 -11.6285 -7.7765 -36.2152 8.6340 16.5663 54.8156 0.2193 -1.9255 -8.3852 1.4508 -7.6137 -21.5468 0.0000 0.0000 0.0000 26.9273 4.9034 0.9445 -2.8931 -10.5200 30.6776 -0.0093 -3.1132 -4.9130 -0.1636 2.6057 -7.1827 3.3378 1.4789 10.2622 2.7749 2.5753 -1.4307 0.6295 1.1720 -7.2653 -11.6543 -5.6902 -18.7500 6.6273 -5.8769 15.2343 3.3715 -2.8105 8.3664 -0.0000 0.0000 0.0000 -89.6925 27.9940 42.6069 116.0548 -57.2727 -82.3575 -0.0000 0.0000 -22.1956 16.8358 6.3935 1.9299 -7.1250 0.0000 -0.0000 -8.3510 36.5461 1.7513 -0.0000 0.0000 0.0000 80.6630 -8.3228 46.0570 -125.3854 54.6952 -90.0988 0.0000 -0.0000 -11.9327 -13.4131 22.0817 -5.1229 7.1250 -0.0000 -0.0000 9.6983 -7.6054 8.4546
0.3686 17.7976 1.8965 3.0007 -46.7151 7.5487 0.0000 0.0000 0.0000 -13.0455 -7.1025 -36.2311 7.9561 16.0869 52.4045 0.2757 -1.2578 -9.5556 2.5354 -9.9021 -28.6602 0.0000 0.0000 0.0000 26.3138 4.1909 2.5597 -2.6146 -10.0433 29.1172 0.0298 -3.0687 -1.3626 -0.1520 2.5125 -6.9244 3.5795 1.5297 9.5798 2.5640 2.6147 -1.2899 0.2858 1.1878 -6.7034 -11.5654 -5.7530 -18.7434 6.6747 -5.9932 15.1286 3.3569 -2.8541 8.3393 -0.0000 0.0000 0.0000 -89.6865 28.3279 42.1317 115.3573 -57.4252 -81.7703 -0.0000 0.0000 -22.3771 16.8527 6.1000 1.8437 -7.1250 0.0000 -0.0000 -8.2960 36.2440 1.8013 -0.0000 0.0000 0.0000 80.5840 -8.0089 46.2160 -125.8240 54.5469 -90.4564 0.0000 -0.0000 -11.4448 -13.3601 22.3238 -5.1548 7.1250 -0.0000 -0.0000 9.7409 -7.3692 8.5385
0.1077 17.9215 2.1924 2.8830 -46.4956 7.7124 0.0000 0.0000 0.0000 -13.7695 -6.8936 -36.4810 7.2433 15.5334 49.7886 0.3038 -1.3899 -10.0175 3.1436 -10.9240 -32.0239 0.0000 0.0000 0.0000 26.1509 3.9359 4.1014 -2.3345 -9.5306 27.4697 0.0128 -4.1778 2.3810 -0.0950 1.9883 -5.4733 3.8060 1.5172 9.2212 2.5548 2.6058 -1.3457 0.1605 1.1772 -6.5482 -11.7315 -5.7445 -18.2415 6.7972 -6.0075 14.7637 3.4289 -2.8641 8.1410 0.0000 0.0000 0.0000 -89.8622 28.9211 41.5924 114.6263 -57.5797 -81.1537 -0.0000 0.0000 -22.7245 16.7838 6.0793 1.8295 -7.1250 0.0000 -0.0000 -8.3505 36.2190 1.8185 0.0000 0.0000 0.0000 80.2964 -8.0175 46.5986 -126.3875 54.3525 -90.9149 0.0000 -0.0000 -10.9274 -12.8041 22.1464 -4.8969 7.1250 -0.0000 -0.0000 10.0830 -7.6112 8.7996
-0.1489 18.0283 2.4721 2.8192 -46.4143 7.8432 0.0000 0.0000 0.0000 -14.1068 -7.2742 -36.6246 6.4891 14.8862 46.9146 0.2845 -1.4490 -9.6724 3.3058 -11.1744 -32.8703 0.0000 0.0000 0.0000 26.0609 3.9438 5.5023 -2.0863 -9.0436 25.9317 -0.0842 -5.2950 5.9362 -0.0631 1.6205 -4.4580 3.7401 1.6235 9.1426 2.5640 2.7431 -1.4828 0.1879 1.2448 -6.6495 -11.8141 -5.8300 -18.0145 6.9090 -6.1513 14.7152 3.4639 -2.9300 8.1064 -0.0000 0.0000 0.0000 -89.8889 29.5474 41.0988 114.0662 -57.6943 -80.6806 -0.0000 0.0000 -22.7183 15.8664 6.0311 1.7105 -7.1250 0.0000 -0.0000 -9.1058 36.1194 2.0086 -0.0000 0.0000 0.0000 80.0312 -8.1776 46.7374 -127.0710 54.1106 -91.4694 0.0000 -0.0000 -10.5285 -12.0741 21.7142 -4.5250 7.1250 -0.0000 -0.0000 10.5286 -8.1237 9.0941
